<svg width="173" height="70" viewBox="0 0 173 70" fill="none" xmlns="http://www.w3.org/2000/svg">
<path d="M139.968 13.1189C140.31 13.0948 140.736 13.0689 141.084 13.0756C146.869 13.2199 152.14 13.9327 156.517 17.9986C162.861 23.8908 161.919 33.0799 156.025 38.9027C152.084 42.7954 146.811 44.28 141.309 44.3986C135.263 44.3003 129.184 43.2104 124.708 38.7662C121.95 35.9724 120.3 32.4707 120.402 28.5108C120.625 19.7728 128.842 14.2908 136.864 13.4682C137.945 13.3573 138.838 13.1053 139.968 13.1189ZM144.588 33.3713C146.767 32.8575 147.916 32.2279 149.22 30.2922C150.672 28.1369 149.579 25.1807 147.498 23.8998C146.31 23.1689 144.417 23.0047 143.061 23.1375C140.122 23.7812 139.714 24.1575 137.914 26.4852C137.694 28.1362 137.37 29.5934 138.501 30.9879C139.976 32.8073 142.326 33.5245 144.588 33.3713Z" fill="#3D7183"/>
<path d="M108.431 14.1129C109.529 13.9078 113.75 13.9312 114.968 14.0374C115.355 14.3211 115.938 14.7928 116.028 15.2619C116.231 16.3246 116.179 17.6703 116.216 18.7638C116.397 23.9035 116.453 29.0468 116.383 34.1892C116.36 36.6471 116.287 39.2568 116.078 41.7149C116.058 41.9525 115.595 42.7448 115.454 42.9992L114.806 43.3782C113.52 43.7947 106.758 43.6162 105.257 43.3571C104.082 43.1541 100.503 40.881 99.2929 40.1615C97.4855 39.0826 95.6645 38.0261 93.8309 36.9922C92.6192 36.3163 91.6067 35.5781 90.2641 35.4419C89.9418 36.8828 90.0945 38.6049 90.0718 40.0739C90.054 41.24 90.2321 41.9061 89.5714 42.9476C87.634 43.8427 83.2771 43.9533 81.3762 42.981C80.3976 41.2387 80.7632 38.2352 80.6579 36.2033C80.4758 32.6885 80.5477 29.1134 80.538 25.5891C80.528 21.9938 80.393 18.3903 81.1523 14.8565C81.5835 14.5042 81.9897 14.1553 82.5378 14.0231C84.1215 13.9594 87.18 13.9212 88.7326 14.0921C89.7595 14.2052 92.5559 15.9129 93.5229 16.3931C95.9472 17.5967 98.3639 18.8997 100.808 20.089C102.584 20.9524 104.669 22.2947 106.49 22.9363C107.798 22.8627 107.485 21.3001 107.523 20.4424C107.599 18.6789 107.307 16.6245 107.672 14.9141C107.936 14.5745 108.122 14.4041 108.431 14.1129Z" fill="#3D7183"/>
<path d="M75.8086 33.8904C75.3355 36.009 74.3113 37.9652 72.8396 39.5615C70.2221 42.4467 65.8523 44.234 61.993 44.3712C56.6344 44.5617 51.0171 43.8432 46.8947 40.1067C41.0156 34.7778 42.753 27.1434 42.5002 20.0996C42.4485 18.5946 42.3591 14.2164 44.4565 14.0915C48.8339 13.8308 53.327 14.12 57.7336 13.9492C58.2489 14.3784 58.8618 14.6978 59.1426 15.3732C59.7586 16.8547 59.6164 18.9271 59.6032 20.525L59.5816 27.295C59.5787 28.6665 59.3837 31.2247 60.0327 32.384C60.6539 33.2827 61.0773 33.7996 62.221 34.0081C62.2987 34.0223 62.3765 34.0356 62.4544 34.0483C64.0269 34.4243 66.0914 33.6082 66.5822 31.9691C67.0679 30.3466 66.9384 28.3052 66.935 26.6096L66.9227 20.4335C66.9209 18.9189 66.921 17.4422 67.0727 15.9255C67.0044 14.869 68.4155 13.8551 69.4467 13.9869C71.9513 14.3069 75.3472 12.7658 75.7822 16.2738C76.3119 20.5451 76.3326 24.2227 76.2882 28.4801C76.2782 29.4446 76.1321 30.4196 76.1863 31.3335C76.0877 32.2177 75.9571 33.0132 75.8086 33.8904Z" fill="#3D7183"/>
<path d="M22.8393 14.022C27.0646 13.7626 31.6986 14.1077 35.9553 14.0273C38.1749 13.9854 38.1191 17.0282 38.1258 18.581C38.1321 20.0098 38.1344 21.5121 38.1322 22.9774C38.1327 25.0682 38.1101 27.159 38.0646 29.2493C37.9885 34.2313 37.788 38.7008 32.8318 41.5059C31.3063 42.3693 30.2701 42.8754 28.5306 43.2414C25.5715 44.2962 19.8135 44.4398 16.5584 44.3489C14.0197 44.278 14.4357 39.9543 14.7459 38.1586C15.6714 37.2896 16.153 37.1544 17.4311 36.9003C19.5177 36.4854 20.6933 33.9166 20.7559 32.0737C20.9069 27.6232 20.5814 23.3552 20.6696 18.9267C20.7127 16.763 20.1889 14.6234 22.8393 14.022Z" fill="#3D7183"/>
<path d="M48.2872 57.5734C49.4079 58.1319 51.0528 58.1041 52.1924 57.6528C56.6032 55.9058 58.2521 51.8117 63.5207 51.518C67.4401 51.2995 69.3982 53.0151 72.5467 55.0379C75.7246 57.0795 79.495 57.6689 83.1172 56.5746C85.2443 55.7843 87.4619 54.0992 89.4229 53.0418C92.5171 51.3729 98.6753 51.4 101.643 53.1571C107.553 56.6566 111.316 58.5636 116.921 52.9897C119.621 50.3045 125.501 50.7941 128.58 52.6901C129.499 53.1904 132.67 55.1605 133.256 56.2041C133.303 56.286 133.252 56.6197 133.234 56.7341C133.169 56.8155 133.102 56.9402 133.028 56.9169C131.791 56.5222 130.258 55.0555 129.193 54.4598C128.155 53.8787 127.452 53.4994 126.455 53.0641C125.661 52.7173 124.588 52.5369 123.844 52.4367C117.793 51.6215 117.411 55.5175 112.658 57.2292C111.94 57.4875 110.721 57.8052 109.96 57.7708C104.205 57.5108 101.32 52.7188 95.084 52.8821C89.2431 53.0351 87.5817 56.5678 82.5083 58.0485C81.419 58.3663 79.2595 58.3428 78.0816 58.2727C74.9705 58.0876 72.3093 56.3611 69.7765 54.7144C68.7489 54.0463 67.5499 53.358 66.3662 53.0037C65.5747 52.7668 64.9628 52.8087 64.1805 52.7722C58.4266 52.5045 56.3003 58.5694 51.0253 59.1766C49.5598 59.3453 48.277 58.8451 46.9529 58.2773C46.8335 58.226 46.329 57.9688 46.2484 57.9692C45.1745 57.2874 41.5239 54.473 42.2393 53.1113C42.4641 53.0284 42.6901 53.064 42.8507 53.2474C44.6082 55.2534 45.7789 56.5236 48.2872 57.5734Z" fill="#3D7183"/>
</svg>
